<svg width="559" height="559" viewBox="0 0 559 559" fill="none" xmlns="http://www.w3.org/2000/svg">
<rect x="0.975708" y="0.975586" width="558" height="558" rx="77" fill="white"/>
<g clip-path="url(#clip0_6330_129)">
<path d="M364.626 361.802C380.821 360.125 393.107 346.165 392.548 329.41C391.991 312.656 378.028 299.253 361.275 299.253H360.159C342.845 299.812 329.443 314.331 330.002 331.643C330.561 340.021 333.911 347.281 338.937 352.307C319.95 389.725 290.911 417.089 247.352 439.986C217.754 455.624 187.04 461.209 156.326 457.3C131.196 453.949 111.65 442.781 99.3623 424.349C81.4932 396.985 79.8184 367.385 94.8968 337.787C105.508 316.565 122.259 300.928 132.87 293.109C130.637 285.849 127.286 273.563 125.611 264.629C44.6354 323.268 53.0129 402.57 77.5847 439.986C96.0127 467.911 133.429 485.223 174.754 485.223C185.923 485.223 197.091 484.106 208.261 481.315C279.743 467.352 333.912 424.908 364.626 361.802ZM462.914 292.552C420.471 242.848 357.925 215.483 286.444 215.483H277.509C272.483 205.431 261.872 198.729 250.145 198.729H249.027C231.717 199.287 218.315 213.807 218.872 231.121C219.431 247.874 233.391 261.277 250.145 261.277H251.261C263.546 260.719 274.158 252.9 278.625 242.289H288.677C331.12 242.289 371.327 254.575 407.628 278.59C435.549 297.019 455.654 321.034 466.822 350.073C476.315 373.529 475.757 396.426 465.704 415.973C450.069 445.571 423.822 461.767 389.198 461.767C366.86 461.767 345.639 455.065 334.469 450.039C328.327 455.624 317.157 464.558 309.339 470.145C333.354 481.313 357.925 487.457 381.38 487.457C434.99 487.457 474.641 457.857 489.719 428.259C505.913 395.867 504.796 340.021 462.914 292.552ZM179.222 371.294C179.78 388.048 193.741 401.45 210.494 401.45H211.612C228.924 400.893 242.326 386.372 241.767 369.06C241.21 352.305 227.248 338.903 210.494 338.903H209.378C208.261 338.903 206.584 338.903 205.47 339.46C182.573 301.485 173.08 260.16 176.431 215.482C178.663 181.974 189.833 152.933 209.378 128.918C225.573 108.255 256.846 98.2024 278.068 97.6453C337.262 96.5276 362.391 170.245 364.067 199.844C371.327 201.519 383.613 205.429 391.991 208.222C385.288 117.752 329.443 70.8398 275.834 70.8398C225.573 70.8398 179.222 107.14 160.792 160.753C135.104 232.237 151.857 300.928 183.13 355.099C180.339 359.008 178.663 365.15 179.222 371.294Z" fill="#764ABC"/>
</g>
<defs>
<clipPath id="clip0_6330_129">
<rect width="438.844" height="438.844" fill="white" transform="translate(60.5538 60.5537)"/>
</clipPath>
</defs>
</svg>
