<svg width="558" height="558" viewBox="0 0 558 558" fill="none" xmlns="http://www.w3.org/2000/svg">
<g clip-path="url(#clip0_6328_882)">
<path d="M0 279V0H558V558H0" fill="#007ACC"/>
<path d="M122.342 279.976V302.715H194.882V509.175H246.357V302.715H318.897V280.395C318.897 267.84 318.897 257.656 318.339 257.377C318.339 256.959 274.118 256.819 220.41 256.819L122.76 257.238V280.116L122.342 279.976ZM448.353 256.68C462.582 260.028 473.463 266.445 483.228 276.628C488.39 282.208 496.062 291.973 496.62 294.484C496.62 295.321 472.487 311.643 457.839 320.71C457.281 321.129 455.049 318.757 452.817 315.13C445.563 304.807 438.17 300.343 426.591 299.506C409.851 298.39 398.691 307.179 398.691 321.826C398.691 326.29 399.528 328.801 401.202 332.428C404.969 340.101 411.944 344.704 433.566 354.19C473.463 371.349 490.761 382.648 501.224 398.83C513.081 416.965 515.732 445.423 507.78 466.767C498.852 490.063 477.09 505.827 445.982 510.988C436.217 512.662 413.897 512.383 403.434 510.57C381.114 506.385 359.771 495.225 346.658 480.856C341.496 475.276 331.592 460.35 332.15 459.373L337.451 456.025L358.376 443.889L374.139 434.682L377.766 439.564C382.37 446.818 392.693 456.583 398.691 459.931C416.826 469.278 441.099 468.022 453.096 457.141C458.258 452.398 460.49 447.376 460.49 440.401C460.49 433.984 459.513 431.055 456.305 426.172C451.841 420.034 442.913 415.012 417.803 403.852C388.926 391.576 376.65 383.764 365.211 371.767C358.655 364.513 352.656 353.214 349.866 343.867C347.774 335.776 347.076 315.967 349.029 308.016C355.028 280.116 376.092 260.586 406.224 255.006C415.989 253.053 439.007 253.89 448.632 256.401L448.353 256.68Z" fill="white"/>
</g>
<defs>
<clipPath id="clip0_6328_882">
<rect width="558" height="558" rx="77" fill="white"/>
</clipPath>
</defs>
</svg>
